<svg width="14" height="11" viewBox="0 0 14 11" fill="none" xmlns="http://www.w3.org/2000/svg">
<path d="M0.161538 6.05C0.0538462 5.94 0 5.775 0 5.665C0 5.555 0.0538462 5.39 0.161538 5.28L0.915385 4.51C1.13077 4.29 1.45385 4.29 1.66923 4.51L1.72308 4.565L4.68462 7.81C4.79231 7.92 4.95385 7.92 5.06154 7.81L12.2769 0.165H12.3308C12.5462 -0.055 12.8692 -0.055 13.0846 0.165L13.8385 0.935C14.0538 1.155 14.0538 1.485 13.8385 1.705L5.22308 10.835C5.11538 10.945 5.00769 11 4.84615 11C4.68462 11 4.57692 10.945 4.46923 10.835L0.269231 6.215L0.161538 6.05Z" fill="url(#paint0_linear_5_4415)"/>
<defs>
<linearGradient id="paint0_linear_5_4415" x1="7" y1="0" x2="7" y2="11" gradientUnits="userSpaceOnUse">
<stop stop-color="#48FFFF"/>
<stop offset="0.963205" stop-color="#25A4F1"/>
</linearGradient>
</defs>
</svg>
